<svg version="1.1" id="Layer_1" xmlns="http://www.w3.org/2000/svg" xmlns:xlink="http://www.w3.org/1999/xlink" x="0px" y="0px"
	 width="100%" viewBox="0 0 256 256" enable-background="new 0 0 256 256" xml:space="preserve">
<path fill="#FFFFFF" opacity="1.000000" stroke="none" 
	d="
M168.000000,257.000000 
	C112.000000,257.000000 56.500008,257.000000 1.000007,257.000000 
	C1.000005,171.666672 1.000005,86.333351 1.000003,1.000019 
	C86.333321,1.000013 171.666641,1.000013 257.000000,1.000006 
	C257.000000,86.333313 257.000000,171.666626 257.000000,256.999969 
	C227.500000,257.000000 198.000000,257.000000 168.000000,257.000000 
M58.053501,176.562607 
	C58.368301,176.702682 58.683102,176.842758 59.553288,177.396835 
	C70.651787,183.742950 82.632454,187.480728 95.968552,189.798904 
	C102.720406,190.614578 109.461586,191.534943 116.226265,192.224823 
	C131.869537,193.820160 147.377014,192.686890 163.578262,189.740540 
	C178.061157,187.036453 191.978836,182.782516 204.251343,174.314972 
	C213.065018,168.233917 218.607620,160.377457 216.981384,148.104416 
	C216.949371,146.068909 216.917358,144.033386 217.039307,141.200287 
	C216.583420,138.734451 216.127533,136.268600 215.581436,133.058884 
	C213.060608,130.027435 210.539780,126.995987 207.752045,123.348358 
	C204.881470,121.445801 202.010880,119.543243 198.741806,117.108513 
	C196.527252,115.909409 194.312714,114.710304 192.053406,112.639206 
	C192.022217,107.979080 191.763657,103.306984 192.008484,98.661400 
	C192.478134,89.748924 188.524780,83.305984 181.287537,78.661644 
	C169.842438,71.317032 157.012466,68.465469 143.688782,66.875916 
	C124.550858,64.592690 105.955597,66.489426 87.937698,73.254784 
	C84.668854,74.482178 81.858391,76.930389 78.158394,78.899529 
	C77.042572,79.876060 75.926758,80.852592 74.422760,82.091797 
	C74.176155,82.293404 73.982727,82.537201 73.417992,83.055656 
	C73.169655,83.268745 72.975433,83.523148 72.413254,84.053917 
	C72.166740,84.267784 71.972450,84.521606 71.132835,84.983200 
	C69.746040,88.204529 67.503395,91.337212 67.158539,94.666473 
	C66.526978,100.763786 67.016121,106.977180 66.517906,113.585594 
	C63.626514,115.250031 60.735126,116.914459 57.156597,118.702477 
	C55.058224,120.351173 52.959854,121.999870 50.209351,123.858093 
	C48.386925,126.060677 46.564503,128.263260 44.141754,130.877136 
	C43.104923,135.612930 42.068089,140.348724 40.577374,145.710800 
	C39.768337,159.910248 45.711895,170.658371 56.938160,175.124817 
	C56.938160,175.124817 56.899918,175.050339 57.039181,175.571655 
	C57.346806,175.744781 57.654434,175.917908 57.976421,176.014740 
	C57.976421,176.014740 57.905586,176.046463 58.053501,176.562607 
z"/>
<path fill="#0C3656" opacity="1.000000" stroke="none" 
	d="
M57.843735,118.578888 
	C60.735126,116.914459 63.626514,115.250031 66.963974,113.501762 
	C67.410042,113.417931 67.873001,113.432388 67.830765,113.845139 
	C67.706604,116.513123 67.624680,118.768349 67.202087,121.032471 
	C59.787674,124.520233 57.781776,135.342560 62.741886,143.175430 
	C69.040009,153.121216 79.176773,157.650726 89.641602,160.866364 
	C105.673416,165.792618 122.102081,167.689117 139.073090,166.269135 
	C152.092300,165.179779 164.686523,163.170135 176.608017,157.908691 
	C184.363983,154.485687 191.700562,150.364944 196.083313,142.458908 
	C200.090164,135.230911 197.951645,125.386337 190.981110,120.576111 
	C190.823914,118.063904 190.794220,115.979500 191.106750,113.829765 
	C191.665359,113.680031 191.881760,113.595619 192.098160,113.511200 
	C194.312714,114.710304 196.527252,115.909409 198.903488,117.773438 
	C199.798386,120.238060 200.378021,122.120193 201.292007,123.822838 
	C204.815460,130.386551 205.666214,137.146362 201.712631,143.645508 
	C196.421005,152.344177 188.091782,157.506287 178.768600,160.833694 
	C171.411484,163.459427 163.735931,165.182983 156.251587,167.470169 
	C154.718231,167.938751 153.406143,169.131363 151.593109,169.992126 
	C150.129440,169.994110 149.064743,169.994202 147.741302,169.714737 
	C144.986343,169.625702 142.490112,169.816208 139.629562,170.044250 
	C137.843689,170.384521 136.422150,170.687256 134.768158,170.718719 
	C133.356995,170.298462 132.178284,170.149475 130.624680,170.000366 
	C129.500000,170.000336 128.750214,170.000412 127.634720,169.999985 
	C126.179947,170.329865 125.090874,170.660248 123.617279,170.986206 
	C121.488541,170.657089 119.744316,170.332397 117.744377,169.726044 
	C115.325745,169.627945 113.162819,169.811508 110.625702,169.995529 
	C109.503349,169.994659 108.755180,169.993362 107.929733,169.617859 
	C107.032486,168.827423 106.254326,168.195450 105.386314,168.027328 
	C92.021919,165.438919 78.923134,162.323608 67.450058,154.311691 
	C53.817947,144.792068 51.634483,138.221268 57.572472,122.492363 
	C58.014797,121.320724 57.769413,119.889458 57.843735,118.578888 
z"/>
<path fill="#8CC0E5" opacity="1.000000" stroke="none" 
	d="
M216.937454,148.980057 
	C218.607620,160.377457 213.065018,168.233917 204.251343,174.314972 
	C191.978836,182.782516 178.061157,187.036453 162.882797,189.480499 
	C159.830872,188.248611 156.109009,190.619644 155.094528,186.425247 
	C154.591782,184.346664 154.364090,182.201553 154.414978,180.032761 
	C156.223831,179.617767 157.632217,179.266159 159.035095,178.893799 
	C167.690414,176.596298 176.344482,174.294159 185.368851,171.966156 
	C198.980331,168.147919 208.559311,159.379898 216.937454,148.980057 
z"/>
<path fill="#81B5DF" opacity="1.000000" stroke="none" 
	d="
M154.011948,180.086548 
	C154.364090,182.201553 154.591782,184.346664 155.094528,186.425247 
	C156.109009,190.619644 159.830872,188.248611 162.478180,189.424301 
	C147.377014,192.686890 131.869537,193.820160 116.226265,192.224823 
	C109.461586,191.534943 102.720406,190.614578 95.846405,189.463272 
	C96.330475,188.432953 97.441635,187.746643 97.453323,187.042099 
	C97.498085,184.345215 97.189453,181.642487 97.442596,178.941345 
	C108.983582,179.661545 120.086197,180.686386 131.208771,180.997696 
	C138.795380,181.210052 146.409912,180.425415 154.011948,180.086548 
z"/>
<path fill="#1F5078" opacity="1.000000" stroke="none" 
	d="
M216.959412,148.542236 
	C208.559311,159.379898 198.980331,168.147919 185.114502,171.685471 
	C182.884567,171.500763 181.197357,171.271164 179.685806,171.684265 
	C165.266815,175.624893 150.515305,177.371857 135.653198,177.894073 
	C127.730904,178.172470 119.668320,178.014832 111.849037,176.847946 
	C99.648087,175.027161 87.570404,172.318649 75.500481,169.708801 
	C69.886574,168.494949 64.413589,166.629333 58.534355,165.001831 
	C50.365791,160.331329 43.216579,155.161438 41.976685,144.847961 
	C42.782677,144.576263 43.902050,144.320999 44.246208,144.725418 
	C46.699123,147.607880 48.547737,151.173187 51.414677,153.506073 
	C65.124001,164.661652 81.300362,170.219116 98.512833,172.941711 
	C106.802292,174.252914 115.177528,175.556305 123.537796,175.732910 
	C131.675629,175.904816 139.843933,174.633377 148.331833,173.996460 
	C149.108658,173.996567 149.552505,173.995834 150.444611,173.997116 
	C162.436035,171.542816 174.530060,170.491333 185.369919,166.241196 
	C196.556381,161.855148 207.559158,155.693970 213.939697,144.274017 
	C214.496353,143.277725 215.883804,142.745605 216.885361,141.997879 
	C216.917358,144.033386 216.949371,146.068909 216.959412,148.542236 
z"/>
<path fill="#6BA5D6" opacity="1.000000" stroke="none" 
	d="
M97.012741,178.941940 
	C97.189453,181.642487 97.498085,184.345215 97.453323,187.042099 
	C97.441635,187.746643 96.330475,188.432953 95.466721,189.291870 
	C82.632454,187.480728 70.651787,183.742950 59.155319,176.970215 
	C58.473431,176.377884 58.189507,176.212173 57.905586,176.046463 
	C57.905586,176.046463 57.976421,176.014740 57.863205,175.815277 
	C57.466633,175.427338 57.183273,175.238846 56.899918,175.050339 
	C56.899918,175.050339 56.938160,175.124817 56.975891,174.771515 
	C57.656006,171.618698 58.298382,168.819168 59.276485,166.133499 
	C63.061790,167.866196 66.385811,169.879135 69.985725,171.026138 
	C78.927666,173.875214 87.995483,176.329254 97.012741,178.941940 
z"/>
<path fill="#1B4A6E" opacity="1.000000" stroke="none" 
	d="
M147.998871,173.995667 
	C139.843933,174.633377 131.675629,175.904816 123.537796,175.732910 
	C115.177528,175.556305 106.802292,174.252914 98.512833,172.941711 
	C81.300362,170.219116 65.124001,164.661652 51.414677,153.506073 
	C48.547737,151.173187 46.699123,147.607880 44.246208,144.725418 
	C43.902050,144.320999 42.782677,144.576263 41.755287,144.790192 
	C41.488430,145.054214 41.031258,145.084518 41.031258,145.084518 
	C42.068089,140.348724 43.104923,135.612930 44.542511,131.100708 
	C46.030708,138.474976 47.870857,145.639694 53.268932,150.555328 
	C65.335083,161.543121 80.021141,167.332809 96.381912,169.991577 
	C97.503838,169.993622 98.251785,169.994492 99.253082,170.279419 
	C107.672966,171.373627 115.839523,172.183762 124.405319,172.994690 
	C125.869637,172.996902 126.934700,172.998337 128.374847,172.999924 
	C129.500031,172.999985 130.250137,172.999878 131.399597,172.998535 
	C132.863937,172.996185 133.928909,172.995041 135.381699,172.996552 
	C137.179077,172.668442 138.588669,172.337677 140.331665,172.005814 
	C141.109604,172.005020 141.554123,172.005341 142.244598,172.280197 
	C144.326645,173.035049 146.162766,173.515366 147.998871,173.995667 
z"/>
<path fill="#113D5F" opacity="1.000000" stroke="none" 
	d="
M151.992065,169.990234 
	C153.406143,169.131363 154.718231,167.938751 156.251587,167.470169 
	C163.735931,165.182983 171.411484,163.459427 178.768600,160.833694 
	C188.091782,157.506287 196.421005,152.344177 201.712631,143.645508 
	C205.666214,137.146362 204.815460,130.386551 201.292007,123.822838 
	C200.378021,122.120193 199.798386,120.238060 199.102737,118.039528 
	C202.010880,119.543243 204.881470,121.445801 207.924194,124.074829 
	C209.512985,132.559692 210.181183,139.938751 204.813217,146.991562 
	C200.061691,153.234451 193.853821,157.060989 187.042603,160.004776 
	C179.197357,163.395462 171.028595,166.037598 162.667816,169.004654 
	C161.891953,169.005600 161.448624,169.006714 160.638489,169.005035 
	C159.181259,169.336761 158.090836,169.671265 156.668121,170.005859 
	C155.892761,170.007401 155.449692,170.008881 154.629852,170.006592 
	C153.499405,169.998627 152.745728,169.994431 151.992065,169.990234 
z"/>
<path fill="#D8DADC" opacity="1.000000" stroke="none" 
	d="
M192.075775,113.075203 
	C191.881760,113.595619 191.665359,113.680031 190.845062,113.526596 
	C190.130310,109.502815 190.019485,105.716873 189.928070,101.484497 
	C191.482147,89.730629 185.612305,82.821129 176.224182,78.060471 
	C159.143356,69.398872 140.817139,67.438812 121.591858,68.062057 
	C115.784561,68.716087 110.402298,69.395752 104.655457,70.197319 
	C100.172325,71.854477 96.053787,73.389725 91.535210,74.937836 
	C87.103966,76.313858 83.072769,77.677017 78.989075,78.984970 
	C78.936577,78.929749 78.836319,78.815018 78.836319,78.815018 
	C81.858391,76.930389 84.668854,74.482178 87.937698,73.254784 
	C105.955597,66.489426 124.550858,64.592690 143.688782,66.875916 
	C157.012466,68.465469 169.842438,71.317032 181.287537,78.661644 
	C188.524780,83.305984 192.478134,89.748924 192.008484,98.661400 
	C191.763657,103.306984 192.022217,107.979080 192.075775,113.075203 
z"/>
<path fill="#113D5F" opacity="1.000000" stroke="none" 
	d="
M98.999741,169.995361 
	C98.251785,169.994492 97.503838,169.993622 96.316856,169.628387 
	C94.667938,168.521759 93.540047,167.356964 92.235260,167.103760 
	C81.332466,164.988007 71.362724,160.715302 62.429974,154.180176 
	C53.476883,147.630188 47.281746,139.735733 50.840008,127.609703 
	C51.197308,126.392075 50.870693,124.973747 50.861481,123.648567 
	C52.959854,121.999870 55.058224,120.351173 57.500164,118.640686 
	C57.769413,119.889458 58.014797,121.320724 57.572472,122.492363 
	C51.634483,138.221268 53.817947,144.792068 67.450058,154.311691 
	C78.923134,162.323608 92.021919,165.438919 105.386314,168.027328 
	C106.254326,168.195450 107.032486,168.827423 107.511459,169.621094 
	C104.446892,169.997467 101.723312,169.996414 98.999741,169.995361 
z"/>
<path fill="#174467" opacity="1.000000" stroke="none" 
	d="
M50.535416,123.753326 
	C50.870693,124.973747 51.197308,126.392075 50.840008,127.609703 
	C47.281746,139.735733 53.476883,147.630188 62.429974,154.180176 
	C71.362724,160.715302 81.332466,164.988007 92.235260,167.103760 
	C93.540047,167.356964 94.667938,168.521759 95.942886,169.627197 
	C80.021141,167.332809 65.335083,161.543121 53.268932,150.555328 
	C47.870857,145.639694 46.030708,138.474976 44.842674,130.895065 
	C46.564503,128.263260 48.386925,126.060677 50.535416,123.753326 
z"/>
<path fill="#1B4A6E" opacity="1.000000" stroke="none" 
	d="
M155.006638,170.010376 
	C155.449692,170.008881 155.892761,170.007401 156.889816,170.270142 
	C158.630966,170.025528 159.818130,169.516678 161.005280,169.007828 
	C161.448624,169.006714 161.891953,169.005600 162.913818,169.281647 
	C170.557510,167.690720 177.907150,166.525452 184.627548,163.805466 
	C197.854111,158.452240 210.189911,151.715973 213.191162,135.690720 
	C213.333054,134.933136 214.814194,134.426361 215.671661,133.802765 
	C216.127533,136.268600 216.583420,138.734451 216.962341,141.599091 
	C215.883804,142.745605 214.496353,143.277725 213.939697,144.274017 
	C207.559158,155.693970 196.556381,161.855148 185.369919,166.241196 
	C174.530060,170.491333 162.436035,171.542816 150.512787,173.637360 
	C151.757385,172.187195 153.382019,171.098785 155.006638,170.010376 
z"/>
<path fill="#174467" opacity="1.000000" stroke="none" 
	d="
M215.626541,133.430817 
	C214.814194,134.426361 213.333054,134.933136 213.191162,135.690720 
	C210.189911,151.715973 197.854111,158.452240 184.627548,163.805466 
	C177.907150,166.525452 170.557510,167.690720 163.246323,169.281830 
	C171.028595,166.037598 179.197357,163.395462 187.042603,160.004776 
	C193.853821,157.060989 200.061691,153.234451 204.813217,146.991562 
	C210.181183,139.938751 209.512985,132.559692 208.057648,124.382912 
	C210.539780,126.995987 213.060608,130.027435 215.626541,133.430817 
z"/>
<path fill="#619ED1" opacity="1.000000" stroke="none" 
	d="
M40.804314,145.397659 
	C41.031258,145.084518 41.488430,145.054214 41.709827,145.111969 
	C43.216579,155.161438 50.365791,160.331329 58.558262,165.241272 
	C58.924530,165.538010 58.940758,166.019638 58.940758,166.019638 
	C58.298382,168.819168 57.656006,171.618698 56.937550,174.788315 
	C45.711895,170.658371 39.768337,159.910248 40.804314,145.397659 
z"/>
<path fill="#D8DADC" opacity="1.000000" stroke="none" 
	d="
M67.873001,113.432388 
	C67.873001,113.432388 67.410042,113.417931 67.223999,113.280045 
	C67.016121,106.977180 66.526978,100.763786 67.158539,94.666473 
	C67.503395,91.337212 69.746040,88.204529 71.531960,84.953461 
	C71.931084,84.923721 72.035469,85.028496 71.990829,85.368164 
	C71.300629,87.137154 70.655052,88.566483 69.718369,90.276146 
	C69.287331,93.363678 69.147400,96.170860 68.697037,99.262497 
	C68.215408,104.175423 68.044205,108.803909 67.873001,113.432388 
z"/>
<path fill="#D8DADC" opacity="1.000000" stroke="none" 
	d="
M74.810936,81.829124 
	C75.926758,80.852592 77.042572,79.876060 78.497360,78.857269 
	C78.836319,78.815018 78.936577,78.929749 78.978531,79.225433 
	C79.020477,79.521118 79.004433,80.003227 78.709244,80.141129 
	C77.287392,80.867081 76.160736,81.455132 74.979362,81.988556 
	C74.924644,81.933929 74.810936,81.829124 74.810936,81.829124 
z"/>
<path fill="#D8DADC" opacity="1.000000" stroke="none" 
	d="
M71.880722,84.869560 
	C71.972450,84.521606 72.166740,84.267784 72.671631,83.988411 
	C72.930000,83.922905 73.025719,84.026001 72.915970,84.242325 
	C72.608414,84.728561 72.351501,84.918503 72.035469,85.028496 
	C72.035469,85.028496 71.931084,84.923721 71.880722,84.869560 
z"/>
<path fill="#D8DADC" opacity="1.000000" stroke="none" 
	d="
M72.882668,83.870880 
	C72.975433,83.523148 73.169655,83.268745 73.675369,82.990112 
	C73.932755,82.924576 74.024391,83.024742 73.914093,83.241989 
	C73.604424,83.730492 73.345062,83.919411 73.025719,84.026001 
	C73.025719,84.026001 72.930000,83.922905 72.882668,83.870880 
z"/>
<path fill="#619ED1" opacity="1.000000" stroke="none" 
	d="
M56.969547,175.311005 
	C57.183273,175.238846 57.466633,175.427338 57.856026,175.853424 
	C57.654434,175.917908 57.346806,175.744781 56.969547,175.311005 
z"/>
<path fill="#619ED1" opacity="1.000000" stroke="none" 
	d="
M57.979546,176.304535 
	C58.189507,176.212173 58.473431,176.377884 58.877628,176.763199 
	C58.683102,176.842758 58.368301,176.702682 57.979546,176.304535 
z"/>
<path fill="#D8DADC" opacity="1.000000" stroke="none" 
	d="
M73.887619,82.873886 
	C73.982727,82.537201 74.176155,82.293404 74.616852,81.960464 
	C74.810936,81.829124 74.924644,81.933929 74.865112,82.201950 
	C74.602242,82.735229 74.341850,82.920158 74.024391,83.024742 
	C74.024391,83.024742 73.932755,82.924576 73.887619,82.873886 
z"/>
<path fill="#9CB9DF" opacity="1.000000" stroke="none" 
	d="
M67.830765,113.845139 
	C68.044205,108.803909 68.215408,104.175423 68.731201,99.613960 
	C73.146812,108.132576 80.715721,112.045288 89.248657,115.159554 
	C90.025307,115.807663 90.550476,116.329620 91.048569,117.335854 
	C90.329285,128.849838 92.686607,140.065201 88.648315,150.902054 
	C77.551781,146.244171 67.473114,141.024445 67.653671,126.584442 
	C67.697998,124.455345 67.620384,122.739464 67.542763,121.023582 
	C67.624680,118.768349 67.706604,116.513123 67.830765,113.845139 
z"/>
<path fill="#062947" opacity="1.000000" stroke="none" 
	d="
M67.202087,121.032471 
	C67.620384,122.739464 67.697998,124.455345 67.291107,126.610260 
	C66.015045,129.972229 64.163101,133.072311 64.616631,135.787262 
	C66.516197,147.158508 75.683464,152.403427 84.836990,156.654694 
	C98.063446,162.797577 112.525780,164.471268 126.929153,164.861435 
	C141.190002,165.247757 155.420349,163.599838 168.926559,158.739594 
	C177.817200,155.540283 186.418610,151.367828 191.744202,142.805405 
	C194.755112,137.964539 194.419647,128.511276 191.002533,124.615005 
	C190.955399,123.152779 191.031998,122.078339 191.108612,121.003899 
	C197.951645,125.386337 200.090164,135.230911 196.083313,142.458908 
	C191.700562,150.364944 184.363983,154.485687 176.608017,157.908691 
	C164.686523,163.170135 152.092300,165.179779 139.073090,166.269135 
	C122.102081,167.689117 105.673416,165.792618 89.641602,160.866364 
	C79.176773,157.650726 69.040009,153.121216 62.741886,143.175430 
	C57.781776,135.342560 59.787674,124.520233 67.202087,121.032471 
z"/>
<path fill="#E4EBF7" opacity="1.000000" stroke="none" 
	d="
M190.981110,120.576111 
	C191.031998,122.078339 190.955399,123.152779 190.879669,125.032463 
	C191.933746,134.932907 187.240051,140.904587 180.113647,145.086990 
	C180.296310,141.835938 180.714722,139.072464 180.703476,136.310745 
	C180.669037,127.847443 182.608871,119.238045 179.191803,110.741257 
	C182.888977,107.623207 186.398804,104.777077 189.908646,101.930939 
	C190.019485,105.716873 190.130310,109.502815 190.502823,113.591919 
	C190.794220,115.979500 190.823914,118.063904 190.981110,120.576111 
z"/>
<path fill="#174467" opacity="1.000000" stroke="none" 
	d="
M99.253082,170.279419 
	C101.723312,169.996414 104.446892,169.997467 107.588745,169.995300 
	C108.755180,169.993362 109.503349,169.994659 110.881729,170.276733 
	C113.674660,170.374222 115.837379,170.190964 118.000092,170.007690 
	C119.744316,170.332397 121.488541,170.657089 123.617065,171.320251 
	C124.002937,172.103775 124.004501,172.548828 124.006073,172.993896 
	C115.839523,172.183762 107.672966,171.373627 99.253082,170.279419 
z"/>
<path fill="#174467" opacity="1.000000" stroke="none" 
	d="
M154.629852,170.006592 
	C153.382019,171.098785 151.757385,172.187195 150.064560,173.635345 
	C149.552505,173.995834 149.108658,173.996567 148.331833,173.996475 
	C146.162766,173.515366 144.326645,173.035049 142.489166,172.003448 
	C144.325211,170.966171 146.162613,170.480225 148.000031,169.994278 
	C149.064743,169.994202 150.129440,169.994110 151.593109,169.992126 
	C152.745728,169.994431 153.499405,169.998627 154.629852,170.006592 
z"/>
<path fill="#113D5F" opacity="1.000000" stroke="none" 
	d="
M147.741302,169.714737 
	C146.162613,170.480225 144.325211,170.966171 142.243225,171.728882 
	C141.554123,172.005341 141.109604,172.005020 140.331787,171.672302 
	C139.996979,170.895523 139.995438,170.451111 139.993896,170.006714 
	C142.490112,169.816208 144.986343,169.625702 147.741302,169.714737 
z"/>
<path fill="#113D5F" opacity="1.000000" stroke="none" 
	d="
M117.744377,169.726028 
	C115.837379,170.190964 113.674660,170.374222 111.255920,170.276291 
	C113.162819,169.811508 115.325745,169.627945 117.744377,169.726028 
z"/>
<path fill="#113D5F" opacity="1.000000" stroke="none" 
	d="
M124.405319,172.994690 
	C124.004501,172.548828 124.002937,172.103775 124.001587,171.324677 
	C125.090874,170.660248 126.179947,170.329865 127.634590,170.374802 
	C128.000031,171.500000 127.999893,172.249878 127.999771,172.999756 
	C126.934700,172.998337 125.869637,172.996902 124.405319,172.994690 
z"/>
<path fill="#113D5F" opacity="1.000000" stroke="none" 
	d="
M134.993896,172.993896 
	C133.928909,172.995041 132.863937,172.996185 131.399536,172.623627 
	C130.999924,171.500122 130.999756,170.750305 130.999573,170.000488 
	C132.178284,170.149475 133.356995,170.298462 134.767395,171.052887 
	C134.997345,172.103516 134.995621,172.548706 134.993896,172.993896 
z"/>
<path fill="#174467" opacity="1.000000" stroke="none" 
	d="
M135.381699,172.996552 
	C134.995621,172.548706 134.997345,172.103516 134.999847,171.324158 
	C136.422150,170.687256 137.843689,170.384521 139.629562,170.044250 
	C139.995438,170.451111 139.996979,170.895523 139.998383,171.673431 
	C138.588669,172.337677 137.179077,172.668442 135.381699,172.996552 
z"/>
<path fill="#174467" opacity="1.000000" stroke="none" 
	d="
M130.624680,170.000366 
	C130.999756,170.750305 130.999924,171.500122 131.000168,172.624847 
	C130.250137,172.999878 129.500031,172.999985 128.374847,172.999924 
	C127.999893,172.249878 128.000031,171.500000 128.000305,170.375305 
	C128.750214,170.000412 129.500000,170.000336 130.624680,170.000366 
z"/>
<path fill="#275A84" opacity="1.000000" stroke="none" 
	d="
M59.276482,166.133499 
	C58.940758,166.019638 58.924530,165.538010 58.900627,165.298584 
	C64.413589,166.629333 69.886574,168.494949 75.500481,169.708801 
	C87.570404,172.318649 99.648087,175.027161 111.849037,176.847946 
	C119.668320,178.014832 127.730904,178.172470 135.653198,177.894073 
	C150.515305,177.371857 165.266815,175.624893 179.685806,171.684265 
	C181.197357,171.271164 182.884567,171.500763 184.744629,171.712860 
	C176.344482,174.294159 167.690414,176.596298 159.035095,178.893799 
	C157.632217,179.266159 156.223831,179.617767 154.414978,180.032761 
	C146.409912,180.425415 138.795380,181.210052 131.208771,180.997696 
	C120.086197,180.686386 108.983582,179.661545 97.442596,178.941345 
	C87.995483,176.329254 78.927666,173.875214 69.985725,171.026138 
	C66.385811,169.879135 63.061790,167.866196 59.276482,166.133499 
z"/>
<path fill="#174467" opacity="1.000000" stroke="none" 
	d="
M160.638489,169.005035 
	C159.818130,169.516678 158.630966,170.025528 157.222107,170.270081 
	C158.090836,169.671265 159.181259,169.336761 160.638489,169.005035 
z"/>
<path fill="#FFFFFF" opacity="1.000000" stroke="none" 
	d="
M189.928070,101.484497 
	C186.398804,104.777077 182.888977,107.623207 178.849915,110.775299 
	C176.537399,112.078606 174.754135,113.075966 172.604950,114.104492 
	C166.826965,115.761261 161.414902,117.386864 155.967957,118.657501 
	C155.128326,116.874924 154.446884,115.359238 153.499832,114.033264 
	C143.614853,100.193306 133.662201,86.401588 123.813515,72.535973 
	C122.912674,71.267708 122.601753,69.580406 122.016899,68.087692 
	C140.817139,67.438812 159.143356,69.398872 176.224182,78.060471 
	C185.612305,82.821129 191.482147,89.730629 189.928070,101.484497 
z"/>
<path fill="#F7F9FC" opacity="1.000000" stroke="none" 
	d="
M121.591858,68.062057 
	C122.601753,69.580406 122.912674,71.267708 123.813515,72.535973 
	C133.662201,86.401588 143.614853,100.193306 153.499832,114.033264 
	C154.446884,115.359238 155.128326,116.874924 155.958252,118.896347 
	C155.983414,119.490158 155.964874,119.968140 155.535645,119.970695 
	C150.408051,120.329742 145.709702,120.686234 140.974457,120.690094 
	C130.889343,105.996613 120.863548,91.639946 110.771805,77.329796 
	C108.996109,74.811844 106.944328,72.488579 105.020042,70.075409 
	C110.402298,69.395752 115.784561,68.716087 121.591858,68.062057 
z"/>
<path fill="#EFF3FA" opacity="1.000000" stroke="none" 
	d="
M104.655457,70.197319 
	C106.944328,72.488579 108.996109,74.811844 110.771805,77.329796 
	C120.863548,91.639946 130.889343,105.996613 140.971481,120.924789 
	C141.005386,121.512123 140.996933,121.982407 140.538574,121.981995 
	C136.713974,122.034355 133.347702,122.087128 129.556946,122.098068 
	C127.425987,122.011986 125.719521,121.967743 124.005081,121.556519 
	C122.033852,118.004135 120.230560,114.706017 118.079262,111.653137 
	C109.423065,99.369209 100.659279,87.161102 91.935249,74.924973 
	C96.053787,73.389725 100.172325,71.854477 104.655457,70.197319 
z"/>
<path fill="#E7EDF8" opacity="1.000000" stroke="none" 
	d="
M91.535210,74.937836 
	C100.659279,87.161102 109.423065,99.369209 118.079262,111.653137 
	C120.230560,114.706017 122.033852,118.004135 123.675262,121.587662 
	C121.898743,122.001549 120.444061,122.017303 118.585503,121.969406 
	C114.123985,121.250198 110.066345,120.594650 106.001678,119.568344 
	C105.379356,117.694633 105.027390,116.003197 104.107643,114.718155 
	C95.796463,103.106033 87.385880,91.565056 79.004433,80.003227 
	C79.004433,80.003227 79.020477,79.521118 79.031021,79.280655 
	C83.072769,77.677017 87.103966,76.313858 91.535210,74.937836 
z"/>
<path fill="#E0E8F6" opacity="1.000000" stroke="none" 
	d="
M78.709244,80.141129 
	C87.385880,91.565056 95.796463,103.106033 104.107643,114.718155 
	C105.027390,116.003197 105.379356,117.694633 105.601418,119.582504 
	C100.497337,118.928810 95.786484,117.890198 91.075638,116.851578 
	C90.550476,116.329620 90.025307,115.807663 89.214783,114.796646 
	C84.081703,106.836769 79.324776,99.303696 74.289185,91.961739 
	C73.527138,90.850655 71.468414,90.628914 70.009476,89.995804 
	C70.655052,88.566483 71.300629,87.137154 71.990829,85.368164 
	C72.351501,84.918503 72.608414,84.728561 72.915970,84.242325 
	C73.345062,83.919411 73.604424,83.730492 73.914093,83.241989 
	C74.341850,82.920158 74.602242,82.735229 74.919830,82.256577 
	C76.160736,81.455132 77.287392,80.867081 78.709244,80.141129 
z"/>
<path fill="#DBE5F4" opacity="1.000000" stroke="none" 
	d="
M69.718369,90.276146 
	C71.468414,90.628914 73.527138,90.850655 74.289185,91.961739 
	C79.324776,99.303696 84.081703,106.836769 88.963295,114.670494 
	C80.715721,112.045288 73.146812,108.132576 69.041626,99.329514 
	C69.147400,96.170860 69.287331,93.363678 69.718369,90.276146 
z"/>
<path fill="#0A2440" opacity="1.000000" stroke="none" 
	d="
M180.152878,145.575378 
	C187.240051,140.904587 191.933746,134.932907 191.003403,125.420258 
	C194.419647,128.511276 194.755112,137.964539 191.744202,142.805405 
	C186.418610,151.367828 177.817200,155.540283 168.926559,158.739594 
	C155.420349,163.599838 141.190002,165.247757 126.929153,164.861435 
	C112.525780,164.471268 98.063446,162.797577 84.836990,156.654694 
	C75.683464,152.403427 66.516197,147.158508 64.616631,135.787262 
	C64.163101,133.072311 66.015045,129.972229 67.169174,127.023476 
	C67.473114,141.024445 77.551781,146.244171 88.933548,151.160568 
	C99.043755,153.361954 108.510193,155.293839 118.348190,157.384979 
	C121.816704,157.600174 124.913666,157.656097 128.451416,157.814407 
	C132.587479,157.695389 136.282715,157.473984 140.417297,157.326614 
	C145.905029,156.573792 150.953415,155.746918 156.389099,154.960724 
	C161.720169,153.353271 166.663910,151.705109 172.021729,150.014709 
	C175.008148,148.506775 177.580521,147.041077 180.152878,145.575378 
z"/>
<path fill="#A4BEE3" opacity="1.000000" stroke="none" 
	d="
M117.976639,157.225739 
	C108.510193,155.293839 99.043755,153.361954 89.292068,151.171539 
	C92.686607,140.065201 90.329285,128.849838 91.048569,117.335861 
	C95.786484,117.890198 100.497337,118.928810 105.608444,119.953262 
	C110.066345,120.594650 114.123985,121.250198 118.587677,122.434494 
	C118.654709,134.384064 118.315674,145.804901 117.976639,157.225739 
z"/>
<path fill="#DBE5F4" opacity="1.000000" stroke="none" 
	d="
M180.113647,145.087006 
	C177.580521,147.041077 175.008148,148.506775 172.134354,149.510162 
	C172.220322,146.293625 172.899261,143.543854 172.941406,140.784363 
	C173.077393,131.882614 172.978943,122.977280 172.970856,114.073334 
	C174.754135,113.075966 176.537399,112.078606 178.662567,111.047211 
	C182.608871,119.238045 180.669037,127.847443 180.703476,136.310745 
	C180.714722,139.072464 180.296310,141.835938 180.113647,145.087006 
z"/>
<path fill="#CDDBF0" opacity="1.000000" stroke="none" 
	d="
M172.604950,114.104492 
	C172.978943,122.977280 173.077393,131.882614 172.941406,140.784363 
	C172.899261,143.543854 172.220322,146.293625 171.720306,149.552399 
	C166.663910,151.705109 161.720169,153.353271 156.392105,154.537231 
	C156.336243,143.582977 156.690842,133.093567 156.945038,122.601715 
	C156.966110,121.732292 156.307617,120.846390 155.964874,119.968140 
	C155.964874,119.968140 155.983414,119.490158 155.993118,119.251312 
	C161.414902,117.386864 166.826965,115.761261 172.604950,114.104492 
z"/>
<path fill="#C6D5ED" opacity="1.000000" stroke="none" 
	d="
M155.535645,119.970695 
	C156.307617,120.846390 156.966110,121.732292 156.945038,122.601715 
	C156.690842,133.093567 156.336243,143.582977 156.004791,154.496536 
	C150.953415,155.746918 145.905029,156.573792 140.432434,156.884674 
	C140.339798,153.290390 140.908951,150.215805 140.957184,147.133041 
	C141.088303,138.751343 140.998932,130.366196 140.996933,121.982407 
	C140.996933,121.982407 141.005386,121.512123 141.008362,121.277428 
	C145.709702,120.686234 150.408051,120.329742 155.535645,119.970695 
z"/>
<path fill="#B7CBE9" opacity="1.000000" stroke="none" 
	d="
M140.538574,121.981995 
	C140.998932,130.366196 141.088303,138.751343 140.957184,147.133041 
	C140.908951,150.215805 140.339798,153.290390 139.993103,156.810638 
	C136.282715,157.473984 132.587479,157.695389 128.452454,157.404907 
	C128.341782,152.169739 128.726120,147.449493 128.986877,142.722443 
	C129.365219,135.864182 129.654297,129.000992 129.981445,122.139908 
	C133.347702,122.087128 136.713974,122.034355 140.538574,121.981995 
z"/>
<path fill="#B0C7E7" opacity="1.000000" stroke="none" 
	d="
M129.556946,122.098068 
	C129.654297,129.000992 129.365219,135.864182 128.986877,142.722443 
	C128.726120,147.449493 128.341782,152.169739 128.011642,157.302521 
	C124.913666,157.656097 121.816704,157.600174 118.348190,157.384995 
	C118.315674,145.804901 118.654709,134.384064 118.991562,122.498146 
	C120.444061,122.017303 121.898743,122.001549 123.683243,121.954643 
	C125.719521,121.967743 127.425987,122.011986 129.556946,122.098068 
z"/>
</svg>